# xmcd
#
# Track frame offsets:
# 150
# 21787
# 41353
# 59684
# 78158
# 96192
# 114772
# 132583
# 148756
# 166193
# 185031
# 201571
# 222568
# 246799
# 271051
# 291238
# 310781
#
# Disc length: 4364 seconds
#
#
# Revision: 0
# Processed by: cddbd v1.5.1PL2 Copyright (c) Steve Scherf et al.
# Submitted via: FreeRIP 2.942 
#
DISCID=fe110a11
DTITLE=Mary J Blige - The Breakthrough
DYEAR=2005
DGENRE=R&B
TTITLE0=No One Will Do
TTITLE1=Enough Cryin
TTITLE2=About You
TTITLE3=Be Without You [Kendu Mix]
TTITLE4=Gonna Breakthrough
TTITLE5=Good Woman Down
TTITLE6=Take Me As I Am
TTITLE7=Baggage
TTITLE8=Can't Hide From Luv
TTITLE9=MJB Da MVP [Alternate Version]
TTITLE10=Can't Get Enough
TTITLE11=Ain't Really Love
TTITLE12=I Found My Everything
TTITLE13=Father In You
TTITLE14=Alone
TTITLE15=One f. U2
TTITLE16=Show Love (Hidden Track)
EXTD=
EXTT0=
EXTT1=
EXTT2=
EXTT3=
EXTT4=
EXTT5=
EXTT6=
EXTT7=
EXTT8=
EXTT9=
EXTT10=
EXTT11=
EXTT12=
EXTT13=
EXTT14=
EXTT15=
EXTT16=
PLAYORDER=
